<svg xmlns="http://www.w3.org/2000/svg" xmlns:xlink="http://www.w3.org/1999/xlink" version="1.1" id="Your_Icon" x="0px" y="0px" width="100px" height="100px" viewBox="0 0 100 100" enable-background="new 0 0 100 100" xml:space="preserve">
<g id="Shape_1">
	<g>
		<path fill-rule="evenodd" clip-rule="evenodd" fill="#000000" d="M73,13.375H40.871L37,17.023v6.227c0,1.104-0.896,2-2,2h-9.981    l-0.241,0.255L21,29.493v11.132c0,16.56,0,43.679,0,43.679c0,2.209,1.791,4,4,4h21.049c-0.934-1.436-1.627-3.037-2.041-4.75    H27.375c-1.104,0-2-0.896-2-2V29.449l11.688-0.137c0,0,2.188-0.188,3-0.875s0.75-2.375,0.75-2.375v-8.795H70.5    c1.104,0,2,0.896,2,2v53.431c1.154,2.158,1.813,4.621,1.813,7.239c0,3.088-0.919,5.957-2.486,8.366H73c2.209,0,4-1.791,4-4V17.375    C77,15.166,75.209,13.375,73,13.375z"/>
	</g>
</g>
<g id="Shape_2">
	<g>
		<path fill-rule="evenodd" clip-rule="evenodd" fill="#000000" d="M66.543,70.373c-0.006-0.349-0.053-0.847-0.168-1.592    c-0.096-0.621,1.375-2.563-0.125-1.594c-1.432,0.925-4.396,1.644-6.975,1.789c-1.299-0.067-2.525-0.245-3.512-0.435    c-2.08-0.537-4.014-1.354-4.014-1.354S51.438,67,51.344,67.25s0.125,0.438,0.719,1.656c0.3,0.615,0.186,1.062-0.001,1.354    c-0.123,0.018-0.245,0.034-0.372,0.039c-2.904,2.221-4.781,5.715-4.781,9.654c0,6.722,5.449,12.171,12.171,12.171    S71.25,86.676,71.25,79.954C71.25,76.053,69.4,72.598,66.543,70.373z M64.292,81.991c-1.51-0.509-3.313-0.808-5.255-0.808    c-1.859,0-3.589,0.276-5.058,0.746c-1.504-0.674-2.449-1.631-2.449-2.696c0-0.354,0.11-0.696,0.305-1.021    c-0.113-0.369-0.177-0.75-0.177-1.143c0-2.928,3.303-5.301,7.379-5.301c4.074,0,7.379,2.373,7.379,5.301    c0,0.269-0.037,0.53-0.091,0.788c0.356,0.426,0.557,0.889,0.557,1.375C66.882,80.332,65.877,81.315,64.292,81.991z M54.943,65.516    c3.638,1.667,6.67,0.969,8.804-0.159c0.495-1.045,1.491-1.793,2.685-1.952c0.261-0.254,0.457-0.466,0.577-0.604    c0.271-0.553,0.425-1.144,0.425-1.761c0-3.021-3.475-5.471-7.761-5.471s-7.761,2.449-7.761,5.471c0,0.806,0.25,1.569,0.695,2.258    C53.694,63.63,54.562,64.456,54.943,65.516z M59.758,58.453c1.779,0,3.223,0.531,3.223,1.188c0,0.655-1.443,1.188-3.223,1.188    c-1.78,0-3.223-0.532-3.223-1.188C56.535,58.984,57.978,58.453,59.758,58.453z"/>
	</g>
</g>
<g id="Shape_3">
	<g>
		<path fill-rule="evenodd" clip-rule="evenodd" fill="#000000" d="M43.705,41.697c-2.57,0-4.653,2.083-4.653,4.652    s2.083,4.652,4.653,4.652c2.568,0,4.65-2.083,4.65-4.652S46.272,41.697,43.705,41.697z M44.089,48.322    c-1.461,0-2.646-1.185-2.646-2.646s1.185-2.646,2.646-2.646s2.646,1.185,2.646,2.646S45.551,48.322,44.089,48.322z M64.768,33.543    c0-4.908-3.979-8.885-8.887-8.885c-4.905,0-8.883,3.978-8.883,8.885c0,4.907,3.978,8.885,8.883,8.885    C60.789,42.428,64.768,38.451,64.768,33.543z M50.616,32.563c0-3.27,2.651-5.919,5.919-5.919c3.269,0,5.92,2.649,5.92,5.919    c0,3.27-2.651,5.919-5.92,5.919C53.268,38.482,50.616,35.833,50.616,32.563z M58.233,46.191c-2.223,0-4.023,1.803-4.023,4.025    s1.801,4.024,4.023,4.024c2.224,0,4.025-1.802,4.025-4.024S60.457,46.191,58.233,46.191z M58.711,51.301    c-0.984,0-1.783-0.799-1.783-1.783s0.799-1.783,1.783-1.783c0.985,0,1.784,0.799,1.784,1.783S59.696,51.301,58.711,51.301z"/>
	</g>
</g>
</svg>